<svg id="logo-ksrt" xmlns="http://www.w3.org/2000/svg" width="311.03" height="100" viewBox="0 0 311.03 100"><title>logo-ksrt</title><polygon points="44.91 64.06 44.91 75.22 46.72 75.22 46.72 70.68 48.38 70.56 50.74 75.22 52.85 75.22 49.98 69.66 52.73 64.06 50.66 64.06 48.38 68.97 46.72 69.09 46.72 64.06 44.91 64.06" fill="#fff"/><polygon points="61.45 65.64 61.45 64.06 54.41 64.06 54.41 75.22 61.45 75.22 61.45 73.62 56.22 73.62 56.22 70.37 60.46 70.37 60.46 68.8 56.22 68.8 56.22 65.64 61.45 65.64" fill="#fff"/><path d="M66.46,73.8a27.23,27.23,0,0,1-3.36-.3L62.93,75l.59.12a16.44,16.44,0,0,0,3,.32,4,4,0,0,0,2.67-.87,3.35,3.35,0,0,0,1-2.67,2.67,2.67,0,0,0-.68-2,6,6,0,0,0-2.36-1.11A9.76,9.76,0,0,1,65.1,68a1.23,1.23,0,0,1-.48-1.07c0-1,.7-1.45,2.07-1.45a29.1,29.1,0,0,1,3.23.27l.15-1.47-.58-.11a19.65,19.65,0,0,0-3-.29,4.39,4.39,0,0,0-2.67.77,2.78,2.78,0,0,0-1,2.3,2.83,2.83,0,0,0,.78,2.21A5.72,5.72,0,0,0,66,70.24a6.77,6.77,0,0,1,2,.72,1.2,1.2,0,0,1,.46,1C68.48,73.21,67.81,73.8,66.46,73.8Z" fill="#fff"/><polygon points="72.27 64.06 72.27 75.22 74.07 75.22 74.07 70.68 75.73 70.56 78.09 75.22 80.2 75.22 77.33 69.66 80.08 64.06 78.01 64.06 75.73 68.97 74.07 69.09 74.07 64.06 72.27 64.06" fill="#fff"/><rect x="81.76" y="64.06" width="1.81" height="11.16" fill="#fff"/><rect x="85.85" y="70.02" width="4.87" height="1.61" fill="#fff"/><path d="M95.68,73.8a26.57,26.57,0,0,1-3.34-.3L92.15,75l.59.12a16.55,16.55,0,0,0,3.06.32,4.14,4.14,0,0,0,2.67-.87,3.32,3.32,0,0,0,1-2.67,2.68,2.68,0,0,0-.69-2,5.92,5.92,0,0,0-2.35-1.11A9,9,0,0,1,94.34,68a1.22,1.22,0,0,1-.5-1.07c0-1,.7-1.45,2.07-1.45a29.1,29.1,0,0,1,3.23.27l.14-1.47-.6-.09a18.46,18.46,0,0,0-3-.3,4.32,4.32,0,0,0-2.67.78,2.64,2.64,0,0,0-1,2.29,2.79,2.79,0,0,0,.77,2.21,5.47,5.47,0,0,0,2.39,1.11,6.86,6.86,0,0,1,2,.72,1.22,1.22,0,0,1,.45,1C97.71,73.21,97,73.8,95.68,73.8Z" fill="#fff"/><path d="M105.49,75.4a4.56,4.56,0,0,0,3.08-.91,3.62,3.62,0,0,0,1-2.87V64.06h-1.83v7.59c0,1.44-.76,2.17-2.28,2.17s-2.28-.73-2.28-2.17V64.06h-1.87v7.56a3.64,3.64,0,0,0,1,2.87A4.49,4.49,0,0,0,105.49,75.4Z" fill="#fff"/><path d="M119.66,74a7.4,7.4,0,0,0,1-4.34,7.62,7.62,0,0,0-1-4.4,5,5,0,0,0-7,0,7.59,7.59,0,0,0-1,4.39,7.49,7.49,0,0,0,1,4.32,5.26,5.26,0,0,0,7.07,0Zm-1.41-1.16a2.27,2.27,0,0,1-2.12.94,2.18,2.18,0,0,1-2.11-1,6.62,6.62,0,0,1-.56-3.17,6.67,6.67,0,0,1,.57-3.21,2.64,2.64,0,0,1,4.19,0,6.85,6.85,0,0,1,.57,3.22A6.79,6.79,0,0,1,118.25,72.88Z" fill="#fff"/><polygon points="134.05 75.22 134.05 64.06 130.89 64.06 128.4 72.77 125.9 64.06 122.77 64.06 122.77 75.22 124.57 75.22 124.57 66.06 124.81 66.06 127.45 74.76 129.34 74.76 131.98 66.06 132.22 66.06 132.22 75.22 134.05 75.22" fill="#fff"/><polygon points="143.65 65.64 143.65 64.06 136.61 64.06 136.61 75.22 143.65 75.22 143.65 73.62 138.42 73.62 138.42 70.37 142.66 70.37 142.66 68.8 138.42 68.8 138.42 65.64 143.65 65.64" fill="#fff"/><polygon points="154.21 75.22 154.21 64.06 152.41 64.06 152.41 73.62 152.17 73.62 148.77 64.06 145.61 64.06 145.61 75.22 147.43 75.22 147.43 65.64 147.65 65.64 151.12 75.22 154.21 75.22" fill="#fff"/><path d="M57.34,89.91c0-2.12-.5-3.58-1.53-4.36a8.45,8.45,0,0,0-5.05-1.18H44.31V99.65h5.34v-4H51l.87,4h5.33l-1.49-5.2A5.5,5.5,0,0,0,57.34,89.91Zm-6.45,1.62H49.56v-3h1.16c.84,0,1.25.5,1.25,1.49s-.35,1.49-1.09,1.49Z" fill="#fff"/><path d="M61.34,84.37,58,99.65h5.2l.37-1.76h3.49l.44,1.76h5.33L69.35,84.37Zm2.88,9.5.87-5.34h.57l.82,5.34Z" fill="#fff"/><polygon points="87.12 84.37 81.87 84.37 80.16 89.79 79.25 89.79 79.25 84.37 73.96 84.37 73.96 99.66 79.25 99.66 79.25 94.57 80.19 94.57 82.03 99.66 87.35 99.66 84.68 91.76 87.12 84.37" fill="#fff"/><polygon points="88.42 99.66 99.87 99.66 99.87 95.44 93.71 95.44 93.71 94.07 98.5 94.07 98.5 89.89 93.71 89.89 93.71 88.6 99.87 88.6 99.87 84.37 88.42 84.37 88.42 99.66" fill="#fff"/><polygon points="110.54 90.17 110.22 90.17 106.71 84.37 101.51 84.37 101.51 99.66 106.79 99.66 106.79 93.43 107.14 93.43 110.61 99.66 115.83 99.66 115.83 84.37 110.54 84.37 110.54 90.17" fill="#fff"/><polygon points="126.8 90.17 126.47 90.17 122.97 84.37 117.77 84.37 117.77 99.66 123.06 99.66 123.06 93.43 123.39 93.43 126.88 99.66 132.09 99.66 132.09 84.37 126.8 84.37 126.8 90.17" fill="#fff"/><path d="M142.08,94.39a1.19,1.19,0,0,1-.32.93,2.3,2.3,0,0,1-2.2,0,1.2,1.2,0,0,1-.34-.93v-10h-5.33v9.82a5.43,5.43,0,0,0,1.67,4.45,8.19,8.19,0,0,0,5.09,1.33,8,8,0,0,0,5.1-1.33,5.57,5.57,0,0,0,1.62-4.55V84.37H142Z" fill="#fff"/><path d="M160.27,91.19a5.67,5.67,0,0,0-1.67-.87,24.33,24.33,0,0,0-2.37-.63,11.18,11.18,0,0,1-1.72-.46.42.42,0,0,1-.27-.39.33.33,0,0,1,.24-.32,8.7,8.7,0,0,1,1.69-.08q1.47,0,4.68.33l.14-4.1-1-.16a34.59,34.59,0,0,0-5.08-.43,7.38,7.38,0,0,0-4.56,1.13,5.1,5.1,0,0,0-1.5,4.23,4.53,4.53,0,0,0,1.16,3.48,8.56,8.56,0,0,0,4.35,1.56,10.72,10.72,0,0,1,1.48.28.37.37,0,0,1,.27.33c0,.35-.39.52-1.19.52a40.5,40.5,0,0,1-5.72-.49l-.23,4,.9.21a23.94,23.94,0,0,0,2.46.42,26.23,26.23,0,0,0,3.07.2A7.15,7.15,0,0,0,160,98.73a4.83,4.83,0,0,0,1.49-4,7.63,7.63,0,0,0-.23-2.18A2.64,2.64,0,0,0,160.27,91.19Z" fill="#fff"/><polygon points="162.36 88.68 165.51 88.68 165.51 99.66 170.79 99.66 170.79 88.68 173.76 88.68 173.76 84.37 162.36 84.37 162.36 88.68" fill="#fff"/><polygon points="175.24 99.66 186.69 99.66 186.69 95.44 180.54 95.44 180.54 94.07 185.33 94.07 185.33 89.89 180.54 89.89 180.54 88.6 186.69 88.6 186.69 84.37 175.24 84.37 175.24 99.66" fill="#fff"/><polygon points="201.49 84.37 196.25 84.37 194.54 89.79 193.62 89.79 193.62 84.37 188.33 84.37 188.33 99.66 193.62 99.66 193.62 94.57 194.55 94.57 196.41 99.66 201.72 99.66 199.05 91.76 201.49 84.37" fill="#fff"/><polygon points="211.82 90.17 211.5 90.17 208 84.37 202.79 84.37 202.79 99.66 208.08 99.66 208.08 93.43 208.42 93.43 211.89 99.66 217.12 99.66 217.12 84.37 211.82 84.37 211.82 90.17" fill="#fff"/><rect x="219.05" y="84.37" width="5.29" height="15.28" fill="#fff"/><rect x="226.28" y="84.37" width="5.29" height="15.28" fill="#fff"/><polygon points="246.67 84.37 241.43 84.37 239.71 89.79 238.8 89.79 238.8 84.37 233.51 84.37 233.51 99.66 238.8 99.66 238.8 94.57 239.74 94.57 241.59 99.66 246.9 99.66 244.23 91.76 246.67 84.37" fill="#fff"/><polygon points="261.13 84.37 255.88 84.37 254.18 89.79 253.26 89.79 253.26 84.37 247.96 84.37 247.96 99.66 253.26 99.66 253.26 94.57 254.19 94.57 256.05 99.66 261.35 99.66 258.69 91.76 261.13 84.37" fill="#fff"/><path d="M265,84.37l-3.38,15.28h5.2l.36-1.76h3.52l.43,1.76h5.33L273,84.37Zm2.88,9.5.86-5.34h.63l.83,5.34Z" fill="#fff"/><path d="M290,84.08A7.2,7.2,0,0,0,284.46,86c-1.16,1.25-1.73,3.27-1.73,6s.57,4.8,1.75,6a9,9,0,0,0,11.06,0c1.17-1.25,1.74-3.26,1.74-6s-.57-4.8-1.74-6A7.19,7.19,0,0,0,290,84.08Zm1.57,10.67a1.5,1.5,0,0,1-1.56.85,1.54,1.54,0,0,1-1.57-.85,7.5,7.5,0,0,1-.39-2.78,7.28,7.28,0,0,1,.37-2.78,1.56,1.56,0,0,1,1.59-.87,1.5,1.5,0,0,1,1.56.84,7.8,7.8,0,0,1,.36,2.8,7.23,7.23,0,0,1-.36,2.85Z" fill="#fff"/><polygon points="305.44 84.37 303.96 88.87 302.52 84.37 296.92 84.37 301.27 94.87 301.27 99.66 306.56 99.66 306.56 94.87 311.03 84.37 305.44 84.37" fill="#fff"/><path d="M55.78,17.56l48.48,38.67,7.32-9.17L87.48,27.84l18.19-14.55,38.82,31,7.32-9.17L109.35,1.29a5.85,5.85,0,0,0-7.33,0L78,20.4,59.34,5.53a5.86,5.86,0,0,0-7.32,0L0,47.07l7.32,9.18,8.52-6.8v50.2H27.56V40.08Z" fill="#fff"/></svg>